<svg xmlns="http://www.w3.org/2000/svg" viewBox="0 0 100.0 100.0" width="100.0mm" height="100.0mm">
  <g id="sheet">
    <path d="M 5.000,80.839 L 5.011,81.193 L 5.266,83.212 L 6.027,84.501 L 7.058,86.412 L 9.648,88.955 L 9.710,89.016 L 9.750,89.043 L 9.918,89.161 L 11.979,90.482 L 12.446,90.831 L 14.211,91.688 L 15.039,92.151 L 16.517,92.726 L 17.529,93.126 L 18.586,93.381 L 20.272,93.851 L 22.604,94.259 L 25.836,94.637 L 26.765,94.758 L 29.718,94.963 L 30.204,94.991 L 32.909,95.000 L 35.603,94.965 L 35.946,94.939 L 36.103,94.931 L 39.050,94.697 L 40.003,94.564 L 43.223,94.156 L 45.536,93.729 L 47.201,93.247 L 48.270,92.979 L 49.292,92.563 L 50.748,91.980 L 51.587,91.500 L 53.327,90.634 L 53.808,90.268 L 55.939,88.873 L 56.027,88.810 L 56.048,88.796 L 56.080,88.764 L 58.676,86.166 L 59.702,84.218 L 60.438,82.948 L 60.670,80.967 L 60.678,80.568 L 58.764,80.568 L 58.764,77.877 L 60.261,77.877 L 60.121,77.359 L 59.819,76.593 L 59.452,76.248 L 58.204,74.971 L 57.903,74.935 L 57.840,74.929 L 57.840,81.640 L 54.840,81.640 L 54.840,75.199 L 53.528,75.699 L 52.439,76.207 L 53.917,76.207 L 53.917,83.652 L 50.917,83.652 L 50.917,76.912 L 50.846,76.944 L 50.263,77.109 L 48.532,77.560 L 49.994,77.560 L 49.994,85.229 L 46.994,85.229 L 46.994,77.811 L 44.673,78.037 L 46.071,78.037 L 46.071,85.977 L 43.071,85.977 L 43.071,78.154 L 42.440,78.170 L 40.983,78.214 L 42.148,78.214 L 42.148,86.353 L 39.148,86.353 L 39.148,78.269 L 37.059,78.331 L 38.225,78.331 L 38.225,86.611 L 35.225,86.611 L 35.225,78.386 L 33.188,78.447 L 34.301,78.447 L 34.301,86.728 L 31.301,86.728 L 31.301,78.447 L 32.306,78.447 L 30.378,78.408 L 30.378,86.641 L 27.378,86.641 L 27.378,78.367 L 28.383,78.367 L 26.455,78.329 L 26.455,86.416 L 23.455,86.416 L 23.455,78.288 L 24.460,78.288 L 23.194,78.263 L 22.532,78.252 L 22.532,86.070 L 19.532,86.070 L 19.532,78.145 L 20.918,78.145 L 18.609,77.943 L 18.609,85.334 L 15.609,85.334 L 15.609,77.699 L 17.069,77.699 L 15.371,77.274 L 14.800,77.118 L 14.686,77.067 L 14.686,83.790 L 11.686,83.790 L 11.686,76.380 L 13.164,76.380 L 12.105,75.899 L 10.762,75.402 L 10.762,81.791 L 7.762,81.791 L 7.762,75.172 L 7.701,75.178 L 7.419,75.215 L 6.167,76.519 L 5.818,76.853 L 5.536,77.590 L 5.342,78.333 L 6.839,78.333 L 6.839,80.839 L 5.000,80.839 Z" fill="none" stroke="#cc0000" stroke-width="0.2"/>
    <path d="M 9.352,74.995 L 9.655,74.995 L 9.583,74.969 L 9.352,74.995 Z" fill="none" stroke="#cc0000" stroke-width="0.2"/>
    <path d="M 55.982,74.766 L 56.242,74.766 L 56.038,74.745 L 55.982,74.766 Z" fill="none" stroke="#cc0000" stroke-width="0.2"/>
    <text x="32.647" y="83.318" font-size="4" text-anchor="middle" dominant-baseline="central" fill="#0000aa">Y6</text>
    <path d="M 5.000,57.799 L 5.001,57.818 L 5.171,61.145 L 6.456,63.191 L 6.947,64.239 L 8.279,65.423 L 9.602,66.818 L 10.390,67.324 L 12.335,68.774 L 12.513,68.860 L 13.195,69.241 L 14.556,69.931 L 14.804,70.087 L 15.082,70.176 L 16.936,70.894 L 17.375,70.981 L 19.519,71.561 L 19.772,71.600 L 21.281,71.849 L 25.937,72.453 L 26.700,72.506 L 28.028,72.582 L 31.462,72.732 L 31.968,72.711 L 32.202,72.745 L 32.437,72.709 L 32.943,72.725 L 34.170,72.633 L 37.709,72.451 L 38.465,72.391 L 43.033,71.754 L 44.610,71.478 L 44.877,71.434 L 47.001,70.836 L 47.454,70.743 L 49.281,70.015 L 49.572,69.918 L 49.829,69.753 L 51.253,69.013 L 51.867,68.662 L 52.026,68.583 L 53.975,67.101 L 54.740,66.600 L 56.068,65.173 L 57.368,63.994 L 57.862,62.915 L 59.113,60.882 L 59.251,57.572 L 59.249,57.535 L 59.173,57.334 L 58.116,54.650 L 57.129,53.722 L 57.129,59.293 L 54.129,59.293 L 54.129,52.931 L 55.545,52.931 L 54.809,52.843 L 54.315,52.793 L 52.453,53.484 L 51.899,53.695 L 51.728,53.775 L 53.206,53.775 L 53.206,61.269 L 50.206,61.269 L 50.206,54.473 L 49.351,54.864 L 47.818,55.298 L 49.283,55.298 L 49.283,62.960 L 46.283,62.960 L 46.283,55.670 L 45.152,55.779 L 43.962,55.895 L 45.360,55.895 L 45.360,63.757 L 42.360,63.757 L 42.360,56.040 L 40.080,56.199 L 41.437,56.199 L 41.437,64.197 L 38.437,64.197 L 38.437,56.263 L 36.400,56.316 L 37.514,56.316 L 37.514,64.432 L 34.514,64.432 L 34.514,56.369 L 32.487,56.430 L 33.590,56.430 L 33.590,64.584 L 30.590,64.584 L 30.590,56.430 L 31.595,56.430 L 29.667,56.391 L 29.667,64.475 L 26.667,64.475 L 26.667,56.352 L 27.556,56.352 L 25.744,56.322 L 25.744,64.257 L 22.744,64.257 L 22.744,56.270 L 24.078,56.270 L 21.821,56.134 L 21.821,63.851 L 18.821,63.851 L 18.821,56.002 L 20.207,56.002 L 19.084,55.904 L 17.898,55.800 L 17.898,63.064 L 14.898,63.064 L 14.898,55.433 L 16.361,55.433 L 14.883,55.029 L 13.975,54.626 L 13.975,61.398 L 10.975,61.398 L 10.975,53.945 L 12.453,53.945 L 12.321,53.885 L 11.747,53.673 L 9.895,53.006 L 9.384,53.063 L 8.629,53.160 L 10.051,53.160 L 10.051,59.440 L 7.051,59.440 L 7.051,53.997 L 6.109,54.899 L 5.001,57.796 L 5.000,57.799 Z" fill="none" stroke="#cc0000" stroke-width="0.2"/>
    <text x="31.901" y="61.587" font-size="4" text-anchor="middle" dominant-baseline="central" fill="#0000aa">Y5</text>
    <path d="M 5.000,34.091 L 5.946,38.433 L 6.084,39.028 L 6.535,40.085 L 7.802,42.649 L 8.954,44.623 L 9.132,44.856 L 9.528,45.157 L 11.369,46.423 L 13.497,47.403 L 14.882,48.059 L 18.126,49.060 L 18.772,49.278 L 19.215,49.378 L 22.469,50.090 L 22.686,50.117 L 25.884,50.566 L 30.467,50.787 L 30.627,50.793 L 35.084,50.747 L 35.246,50.740 L 38.341,50.508 L 41.544,50.027 L 41.754,49.999 L 45.013,49.254 L 45.445,49.153 L 46.074,48.933 L 49.328,47.895 L 50.686,47.238 L 52.833,46.226 L 54.643,44.959 L 55.063,44.634 L 55.250,44.385 L 56.379,42.411 L 57.678,39.720 L 58.070,38.774 L 58.189,38.235 L 59.107,33.818 L 59.034,32.187 L 59.031,30.161 L 58.623,27.791 L 57.829,25.749 L 57.124,24.846 L 57.124,33.377 L 54.124,33.377 L 54.124,23.012 L 55.608,23.012 L 54.246,22.187 L 53.477,21.713 L 53.201,21.668 L 53.201,34.090 L 50.201,34.090 L 50.201,21.410 L 51.640,21.410 L 51.335,21.360 L 50.825,21.248 L 48.686,21.287 L 49.278,21.287 L 49.278,34.843 L 46.278,34.843 L 46.278,21.362 L 44.048,21.477 L 45.355,21.477 L 45.355,35.503 L 42.355,35.503 L 42.355,21.530 L 40.292,21.587 L 41.432,21.587 L 41.432,35.933 L 38.432,35.933 L 38.432,21.645 L 38.005,21.662 L 37.396,21.667 L 37.508,21.667 L 37.508,36.180 L 34.508,36.180 L 34.508,21.687 L 33.472,21.695 L 33.585,21.695 L 33.585,36.241 L 30.585,36.241 L 30.585,21.716 L 29.785,21.721 L 29.662,21.722 L 29.662,36.194 L 26.662,36.194 L 26.662,21.702 L 27.816,21.702 L 27.793,21.701 L 25.739,21.679 L 25.739,35.999 L 22.739,35.999 L 22.739,21.653 L 23.303,21.653 L 21.816,21.637 L 21.816,35.620 L 18.816,35.620 L 18.816,21.611 L 19.976,21.611 L 17.893,21.526 L 17.893,34.995 L 14.893,34.995 L 14.893,21.465 L 13.159,21.452 L 12.659,21.568 L 12.527,21.591 L 13.969,21.591 L 13.969,34.265 L 10.969,34.265 L 10.969,21.863 L 10.512,21.943 L 9.755,22.421 L 8.562,23.159 L 10.046,23.159 L 10.046,33.547 L 7.046,33.547 L 7.046,24.912 L 6.970,25.013 L 6.197,26.025 L 5.423,28.073 L 5.039,30.457 L 5.056,32.474 L 5.000,34.091 Z" fill="none" stroke="#cc0000" stroke-width="0.2"/>
    <text x="31.823" y="32.651" font-size="4" text-anchor="middle" dominant-baseline="central" fill="#0000aa">Y13</text>
  </g>
</svg>